# xmcd
#
# Track frame offsets: 
#        150
#        10877
#        21171
#        41175
#        52200
#        61875
#        74325
#        83254
#        89925
#        94422
#        108900
#        116452
#        125079
#        126846
#        139575
#        152347
#        159739
#        166943
#        185850
#        198421
#        214900
#        225396
#        244500
#        256297
#        265909
#        273825
#        290231
#        297163
#
# Disc length: 4204 seconds
#
# Revision: 8
# Processed by: cddbd v1.5.2PL0 Copyright (c) Steve Scherf et al.
# Submitted via: ExactAudioCopyFreeDBPlugin 1.0
#
DISCID=a1106a1c
DTITLE=Reinhard Goebel, Musica Antiqua Koeln - Telemann: Flute Quartet
DTITLE=s
DYEAR=2005
DGENRE=Chamber
TTITLE0=Quartet in G minor, TWV 43:g4 - I. Allegro
TTITLE1=Quartet in G minor, TWV 43:g4 - II. Adagio
TTITLE2=Quartet in G minor, TWV 43:g4 - III. Allegro
TTITLE3=Quartet in G major, TWV 43:G6 - I. Allegro
TTITLE4=Quartet in G major, TWV 43:G6 - II. Grave
TTITLE5=Quartet in G major, TWV 43:G6 - III. Allegro
TTITLE6=Quartet in D minor, TWV 43:d3 - I. Adagio
TTITLE7=Quartet in D minor, TWV 43:d3 - II. Allegro
TTITLE8=Quartet in D minor, TWV 43:d3 - III. Largo
TTITLE9=Quartet in D minor, TWV 43:d3 - IV. Allegro
TTITLE10=Quartet in G major, TWV 43:G11 - I. Affettuoso
TTITLE11=Quartet in G major, TWV 43:G11 - II. Allegro
TTITLE12=Quartet in G major, TWV 43:G11 - III. Adagio
TTITLE13=Quartet in G major, TWV 43:G11 - IV. Allegro assai
TTITLE14=Quartet in A minor, TWV 43:a3 - I. Adagio
TTITLE15=Quartet in A minor, TWV 43:a3 - II. Allegro
TTITLE16=Quartet in A minor, TWV 43:a3 - III. Adagio
TTITLE17=Quartet in A minor, TWV 43:a3 - IV. Vivace
TTITLE18=Quartet in G major, TWV 43:G12 - I. Dolce
TTITLE19=Quartet in G major, TWV 43:G12 - II. Allegro
TTITLE20=Quartet in G major, TWV 43:G12 - III. Soave
TTITLE21=Quartet in G major, TWV 43:G12 - IV. Vivace
TTITLE22=Quartet in B flat major, TWV 43:B2 - I. Spirituoso
TTITLE23=Quartet in B flat major, TWV 43:B2 - II. Grave
TTITLE24=Quartet in B flat major, TWV 43:B2 - III. Allegro
TTITLE25=Quartet in G major, TWV 43:G10 - I. Vivace
TTITLE26=Quartet in G major, TWV 43:G10 - II. Andante
TTITLE27=Quartet in G major, TWV 43:G10 - III. Vivace
EXTD=YEAR: 2005
EXTT0=
EXTT1=
EXTT2=
EXTT3=
EXTT4=
EXTT5=
EXTT6=
EXTT7=
EXTT8=
EXTT9=
EXTT10=
EXTT11=
EXTT12=
EXTT13=
EXTT14=
EXTT15=
EXTT16=
EXTT17=
EXTT18=
EXTT19=
EXTT20=
EXTT21=
EXTT22=
EXTT23=
EXTT24=
EXTT25=
EXTT26=
EXTT27=
PLAYORDER=
